<?xml version="1.0" standalone="no"?>
<!DOCTYPE svg PUBLIC "-//W3C//DTD SVG 1.1//EN" "http://www.w3.org/Graphics/SVG/1.1/DTD/svg11.dtd">
<svg width="100%" height="100%" viewBox="0 0 15 9" version="1.1" xmlns="http://www.w3.org/2000/svg" xmlns:xlink="http://www.w3.org/1999/xlink" xml:space="preserve" style="fill-rule:evenodd;clip-rule:evenodd;stroke-linejoin:round;stroke-miterlimit:1.41421;">
    <clipPath id="_clip1">
        <path d="M0,0.998C0,0.447 0.438,0 1.003,0L4.994,0C6.102,0 7,0.896 7,1.997L7,9L1.003,9C0.449,9 0,8.554 0,8.002L0,0.998Z"/>
    </clipPath>
    <g clip-path="url(#_clip1)">
        <clipPath id="_clip2">
            <rect x="-3" y="-6" width="20" height="20"/>
        </clipPath>
        <g clip-path="url(#_clip2)">
            <rect x="-5" y="-5" width="17" height="19" style="fill:rgb(44,49,58);fill-rule:nonzero;"/>
        </g>
    </g>
    <clipPath id="_clip3">
        <path d="M8,1.997C8,0.894 8.887,0 10.006,0L13.997,0C14.551,0 15,0.446 15,0.998L15,8.002C15,8.553 14.562,9 13.997,9L8,9L8,1.997Z"/>
    </clipPath>
    <g clip-path="url(#_clip3)">
        <clipPath id="_clip4">
            <rect x="-3" y="-6" width="20" height="20"/>
        </clipPath>
        <g clip-path="url(#_clip4)">
            <rect x="3" y="-5" width="17" height="19" style="fill:rgb(44,49,58);fill-rule:nonzero;"/>
        </g>
    </g>
</svg>
