<?xml version="1.0" standalone="no"?>
<!DOCTYPE svg PUBLIC "-//W3C//DTD SVG 1.1//EN" "http://www.w3.org/Graphics/SVG/1.1/DTD/svg11.dtd">
<svg width="100%" height="100%" viewBox="0 0 14 11" version="1.1" xmlns="http://www.w3.org/2000/svg" xmlns:xlink="http://www.w3.org/1999/xlink" xml:space="preserve" style="fill-rule:evenodd;clip-rule:evenodd;stroke-linejoin:round;stroke-miterlimit:1.41421;">
    <clipPath id="_clip1">
        <path d="M0,4L14,4L14,9.997C14,10.551 13.55,11 12.993,11L1.007,11C0.451,11 0,10.562 0,9.997L0,4Z"/>
    </clipPath>
    <g clip-path="url(#_clip1)">
        <clipPath id="_clip2">
            <rect x="-3" y="-4" width="20" height="20"/>
        </clipPath>
        <g clip-path="url(#_clip2)">
            <rect x="-5" y="-1" width="24" height="17" style="fill:rgb(44,49,58);fill-rule:nonzero;"/>
        </g>
    </g>
    <clipPath id="_clip3">
        <path d="M0,0.999C0,0.447 0.453,0 0.992,0C0.992,0 3.571,0 5,0C6,0 6,1 7,1C8,1 12.992,1 12.992,1C13.549,1 14,1.444 14,2L14,3L0,3L0,0.999Z"/>
    </clipPath>
    <g clip-path="url(#_clip3)">
        <clipPath id="_clip4">
            <rect x="-3" y="-4" width="20" height="20"/>
        </clipPath>
        <g clip-path="url(#_clip4)">
            <rect x="-5" y="-5" width="24" height="13" style="fill:rgb(44,49,58);fill-rule:nonzero;"/>
        </g>
    </g>
</svg>
