<?xml version="1.0" standalone="no"?><!DOCTYPE svg PUBLIC "-//W3C//DTD SVG 1.1//EN" "http://www.w3.org/Graphics/SVG/1.1/DTD/svg11.dtd"><svg width="100%" height="100%" viewBox="0 0 14 11" version="1.1" xmlns="http://www.w3.org/2000/svg" xmlns:xlink="http://www.w3.org/1999/xlink" xml:space="preserve" style="fill-rule:evenodd;clip-rule:evenodd;stroke-linejoin:round;stroke-miterlimit:1.41421;"><clipPath id="_clip1"><path d="M0,4l14,0l0,5.997c0,0.554 -0.45,1.003 -1.007,1.003l-11.986,0c-0.556,0 -1.007,-0.438 -1.007,-1.003l0,-5.997Z"/></clipPath><g clip-path="url(#_clip1)"><clipPath id="_clip2"><rect x="-3" y="-4" width="20" height="20"/></clipPath><g clip-path="url(#_clip2)"><rect x="-5" y="-1" width="24" height="17" style="fill:#9da5b5;fill-rule:nonzero;"/></g></g><clipPath id="_clip3"><path d="M0,0.999c0,-0.552 0.453,-0.999 0.992,-0.999c0,0 2.579,0 4.008,0c1,0 1,1 2,1c1,0 5.992,0 5.992,0c0.557,0 1.008,0.444 1.008,1l0,1l-14,0l0,-2.001Z"/></clipPath><g clip-path="url(#_clip3)"><clipPath id="_clip4"><rect x="-3" y="-4" width="20" height="20"/></clipPath><g clip-path="url(#_clip4)"><rect x="-5" y="-5" width="24" height="13" style="fill:#9da5b5;fill-rule:nonzero;"/></g></g></svg>