<?xml version="1.0" standalone="no"?><!DOCTYPE svg PUBLIC "-//W3C//DTD SVG 1.1//EN" "http://www.w3.org/Graphics/SVG/1.1/DTD/svg11.dtd"><svg width="100%" height="100%" viewBox="0 0 14 14" version="1.1" xmlns="http://www.w3.org/2000/svg" xmlns:xlink="http://www.w3.org/1999/xlink" xml:space="preserve" style="fill-rule:evenodd;clip-rule:evenodd;stroke-miterlimit:10;"><clipPath id="_clip1"><path d="M7,14c3.866,0 7,-3.134 7,-7c0,-3.866 -3.134,-7 -7,-7c-3.866,0 -7,3.134 -7,7c0,3.866 3.134,7 7,7Z"/></clipPath><g clip-path="url(#_clip1)"><clipPath id="_clip2"><rect x="-3" y="-3" width="20" height="20"/></clipPath><g clip-path="url(#_clip2)"><path d="M7,14c3.866,0 7,-3.134 7,-7c0,-3.866 -3.134,-7 -7,-7c-3.866,0 -7,3.134 -7,7c0,3.866 3.134,7 7,7Z" style="fill:none;stroke-width:2px;stroke:#9da5b5;"/></g></g><clipPath id="_clip3"><path d="M7,12c2.761,0 5,-2.239 5,-5c0,-2.761 -2.239,-5 -5,-5c-2.761,0 -5,2.239 -5,5c0,2.761 2.239,5 5,5Z"/></clipPath><g clip-path="url(#_clip3)"><clipPath id="_clip4"><rect x="-3" y="-3" width="20" height="20"/></clipPath><g clip-path="url(#_clip4)"><path d="M7,12c2.761,0 5,-2.239 5,-5c0,-2.761 -2.239,-5 -5,-5c-2.761,0 -5,2.239 -5,5c0,2.761 2.239,5 5,5Z" style="fill:none;stroke-width:2px;stroke:#9da5b5;"/></g></g></svg>