<?xml version="1.0" standalone="no"?>
<!DOCTYPE svg PUBLIC "-//W3C//DTD SVG 1.1//EN" "http://www.w3.org/Graphics/SVG/1.1/DTD/svg11.dtd">
<svg width="100%" height="100%" viewBox="0 0 14 14" version="1.1" xmlns="http://www.w3.org/2000/svg" xmlns:xlink="http://www.w3.org/1999/xlink" xml:space="preserve" style="fill-rule:evenodd;clip-rule:evenodd;stroke-miterlimit:10;">
    <clipPath id="_clip1">
        <path d="M7,14C10.866,14 14,10.866 14,7C14,3.134 10.866,0 7,0C3.134,0 0,3.134 0,7C0,10.866 3.134,14 7,14Z"/>
    </clipPath>
    <g clip-path="url(#_clip1)">
        <clipPath id="_clip2">
            <rect x="-3" y="-3" width="20" height="20"/>
        </clipPath>
        <g clip-path="url(#_clip2)">
            <path d="M7,14C10.866,14 14,10.866 14,7C14,3.134 10.866,0 7,0C3.134,0 0,3.134 0,7C0,10.866 3.134,14 7,14Z" style="fill:none;stroke-width:2px;stroke:rgb(44,49,58);"/>
        </g>
    </g>
    <clipPath id="_clip3">
        <path d="M7,12C9.761,12 12,9.761 12,7C12,4.239 9.761,2 7,2C4.239,2 2,4.239 2,7C2,9.761 4.239,12 7,12Z"/>
    </clipPath>
    <g clip-path="url(#_clip3)">
        <clipPath id="_clip4">
            <rect x="-3" y="-3" width="20" height="20"/>
        </clipPath>
        <g clip-path="url(#_clip4)">
            <path d="M7,12C9.761,12 12,9.761 12,7C12,4.239 9.761,2 7,2C4.239,2 2,4.239 2,7C2,9.761 4.239,12 7,12Z" style="fill:none;stroke-width:2px;stroke:rgb(44,49,58);"/>
        </g>
    </g>
</svg>
