<?xml version="1.0" standalone="no"?><!DOCTYPE svg PUBLIC "-//W3C//DTD SVG 1.1//EN" "http://www.w3.org/Graphics/SVG/1.1/DTD/svg11.dtd"><svg width="100%" height="100%" viewBox="0 0 12 12" version="1.1" xmlns="http://www.w3.org/2000/svg" xmlns:xlink="http://www.w3.org/1999/xlink" xml:space="preserve" style="fill-rule:evenodd;clip-rule:evenodd;stroke-linejoin:round;stroke-miterlimit:1.41421;"><clipPath id="_clip1"><path d="M2.982,4.505l-2.982,-4.505l3.429,0l1.532,2.146l-0.274,0.327l-1.705,2.032ZM4.959,9.858l-1.53,2.142l-3.429,0l2.981,-4.505l1.704,2.037l0.274,0.326Z"/></clipPath><g clip-path="url(#_clip1)"><clipPath id="_clip2"><rect x="-4" y="-4" width="20" height="20"/></clipPath><g clip-path="url(#_clip2)"><rect x="-5" y="-5" width="14.961" height="22" style="fill:#ffb064;fill-rule:nonzero;"/></g></g><clipPath id="_clip3"><path d="M9.026,4.494l2.974,-4.494l-3.429,0l-1.533,2.147l1.988,2.347ZM7.04,9.856l1.531,2.144l3.429,0l-2.974,-4.493l-1.717,2.031l-0.269,0.318Z"/></clipPath><g clip-path="url(#_clip3)"><clipPath id="_clip4"><rect x="-4" y="-4" width="20" height="20"/></clipPath><g clip-path="url(#_clip4)"><rect x="2.038" y="-5" width="14.962" height="22" style="fill:#ffb064;fill-rule:nonzero;"/></g></g><clipPath id="_clip5"><path d="M6,3.575l-2.035,2.425l2.035,2.431l2.055,-2.431l-2.055,-2.425Z"/></clipPath><g clip-path="url(#_clip5)"><rect x="-1.035" y="-1.425" width="14.09" height="14.857" style="fill:#ff7051;fill-rule:nonzero;"/></g></svg>