<?xml version="1.0" standalone="no"?><!DOCTYPE svg PUBLIC "-//W3C//DTD SVG 1.1//EN" "http://www.w3.org/Graphics/SVG/1.1/DTD/svg11.dtd"><svg width="100%" height="100%" viewBox="0 0 14 14" version="1.1" xmlns="http://www.w3.org/2000/svg" xmlns:xlink="http://www.w3.org/1999/xlink" xml:space="preserve" style="fill-rule:evenodd;clip-rule:evenodd;stroke-linejoin:round;stroke-miterlimit:1.41421;"><clipPath id="_clip1"><path d="M13.326,10c-1.123,2.365 -3.534,4 -6.326,4c-2.792,0 -5.203,-1.635 -6.326,-4l3.594,0c0.452,2.359 1.443,4 2.732,4c1.289,0 2.28,-1.641 2.732,-4l3.594,0ZM8.706,10c-0.375,1.798 -1.052,3 -1.706,3c-0.654,0 -1.331,-1.202 -1.706,-3l3.412,0ZM13.71,9l-3.825,0c0.076,-0.634 0.115,-1.306 0.115,-2c0,-0.694 -0.039,-1.366 -0.115,-2l3.825,0c0.189,0.634 0.29,1.305 0.29,2c0,0.695 -0.101,1.366 -0.29,2ZM8.873,9l-3.746,0c-0.081,-0.625 -0.127,-1.298 -0.127,-2c0,-0.702 0.046,-1.375 0.127,-2l3.746,0c0.081,0.625 0.127,1.298 0.127,2c0,0.702 -0.046,1.375 -0.127,2ZM4.115,9l-3.825,0c-0.189,-0.634 -0.29,-1.305 -0.29,-2c0,-0.695 0.101,-1.366 0.29,-2l3.825,0c-0.076,0.634 -0.115,1.306 -0.115,2c0,0.694 0.039,1.366 0.115,2ZM4.268,4l-3.594,0c1.122,-2.362 3.527,-3.996 6.315,-4l0.011,0c-1.289,0 -2.28,1.641 -2.732,4ZM8.706,4l-3.412,0c0.375,-1.798 1.052,-3 1.706,-3c0.654,0 1.331,1.202 1.706,3ZM13.326,4l-3.594,0c-0.452,-2.359 -1.443,-4 -2.732,-4l0.011,0c2.788,0.004 5.193,1.638 6.315,4Z"/></clipPath><g clip-path="url(#_clip1)"><rect x="-3" y="-3" width="20" height="20" style="fill:#5f90ff;fill-rule:nonzero;"/></g></svg>