<?xml version="1.0" standalone="no"?>
<!DOCTYPE svg PUBLIC "-//W3C//DTD SVG 1.1//EN" "http://www.w3.org/Graphics/SVG/1.1/DTD/svg11.dtd">
<svg width="100%" height="100%" viewBox="0 0 14 14" version="1.1" xmlns="http://www.w3.org/2000/svg" xmlns:xlink="http://www.w3.org/1999/xlink" xml:space="preserve" style="fill-rule:evenodd;clip-rule:evenodd;stroke-linejoin:round;stroke-miterlimit:1.41421;">
    <clipPath id="_clip1">
        <path d="M13.326,10C12.203,12.365 9.792,14 7,14C4.208,14 1.797,12.365 0.674,10L4.268,10C4.72,12.359 5.711,14 7,14C8.289,14 9.28,12.359 9.732,10L13.326,10ZM8.706,10C8.331,11.798 7.654,13 7,13C6.346,13 5.669,11.798 5.294,10L8.706,10ZM13.71,9L9.885,9C9.961,8.366 10,7.694 10,7C10,6.306 9.961,5.634 9.885,5L13.71,5C13.899,5.634 14,6.305 14,7C14,7.695 13.899,8.366 13.71,9ZM8.873,9L5.127,9C5.046,8.375 5,7.702 5,7C5,6.298 5.046,5.625 5.127,5L8.873,5C8.954,5.625 9,6.298 9,7C9,7.702 8.954,8.375 8.873,9ZM4.115,9L0.29,9C0.101,8.366 0,7.695 0,7C0,6.305 0.101,5.634 0.29,5L4.115,5C4.039,5.634 4,6.306 4,7C4,7.694 4.039,8.366 4.115,9ZM4.268,4L0.674,4C1.796,1.638 4.201,0.004 6.989,0L7,0C5.711,0 4.72,1.641 4.268,4ZM8.706,4L5.294,4C5.669,2.202 6.346,1 7,1C7.654,1 8.331,2.202 8.706,4ZM13.326,4L9.732,4C9.28,1.641 8.289,0 7,0L7.011,0C9.799,0.004 12.204,1.638 13.326,4Z"/>
    </clipPath>
    <g clip-path="url(#_clip1)">
        <rect x="-3" y="-3" width="20" height="20" style="fill:rgb(38,98,202);fill-rule:nonzero;"/>
    </g>
</svg>
